<svg width="322" height="454" viewBox="0 0 322 454" fill="none" xmlns="http://www.w3.org/2000/svg">
<path d="M34.0568 8.23862C42.6051 3.49122 52.222 1 62 1C71.778 1 81.3949 3.49122 89.9432 8.23862L291.388 120.13C300.365 125.116 307.844 132.412 313.051 141.263C318.258 150.113 321.003 160.196 321 170.464V390.507C320.998 400.771 318.251 410.847 313.044 419.692C307.837 428.537 300.36 435.829 291.388 440.812L89.9432 552.761C81.3949 557.509 71.778 560 62 560C52.222 560 42.6051 557.509 34.0568 552.761L-167.388 440.812C-176.356 435.831 -183.83 428.544 -189.037 419.705C-194.243 410.865 -196.992 400.794 -197 390.536V170.464C-197.003 160.196 -194.258 150.113 -189.051 141.263C-183.844 132.412 -176.365 125.116 -167.388 120.13L34.0568 8.23862Z" fill="#E789AB" stroke="#E789AB" stroke-width="2"/>
</svg>
