<svg width="370" height="561" viewBox="0 0 370 561" fill="none" xmlns="http://www.w3.org/2000/svg">
<path d="M232.057 8.23862C240.605 3.49122 250.222 1 260 1C269.778 1 279.395 3.49122 287.943 8.23862L489.388 120.13C498.365 125.116 505.844 132.412 511.051 141.263C516.258 150.113 519.003 160.196 519 170.464V390.507C518.998 400.771 516.251 410.847 511.044 419.692C505.837 428.537 498.36 435.829 489.388 440.812L287.943 552.761C279.395 557.509 269.778 560 260 560C250.222 560 240.605 557.509 232.057 552.761L30.6123 440.812C21.6439 435.831 14.1696 428.544 8.96323 419.705C3.75684 410.865 1.00756 400.794 1 390.536V170.464C0.997298 160.196 3.74172 150.113 8.94864 141.263C14.1556 132.412 21.6354 125.116 30.6123 120.13L232.057 8.23862Z" fill="#E789AB" stroke="#E789AB" stroke-width="2"/>
</svg>
