<svg width="41" height="35" viewBox="0 0 41 35" fill="none" xmlns="http://www.w3.org/2000/svg">
<path d="M41 4.14585C39.8583 5.93055 38.4575 7.45191 36.7978 8.70995C36.8142 9.04735 36.8224 9.4287 36.8224 9.854C36.8224 12.217 36.4946 14.5829 35.8389 16.9517C35.1833 19.3204 34.1817 21.5878 32.8343 23.7537C31.4869 25.9196 29.8819 27.8384 28.0193 29.51C26.1567 31.1817 23.9178 32.5147 21.3025 33.5088C18.6872 34.5029 15.8843 35 12.8939 35C8.22675 35 3.9288 33.6759 0 31.0278C0.697315 31.1093 1.3661 31.1501 2.00635 31.1501C5.90535 31.1501 9.38778 29.888 12.4536 27.3639C10.6357 27.3289 9.00762 26.7408 7.56936 25.5996C6.1311 24.4584 5.14132 23.0002 4.60003 21.225C5.13506 21.3321 5.66312 21.3856 6.18421 21.3856C6.93428 21.3856 7.67234 21.2828 8.39838 21.0772C6.45831 20.6689 4.84885 19.6534 3.57001 18.0308C2.29122 16.4083 1.65182 14.5355 1.65182 12.4125V12.3031C2.84265 12.996 4.11285 13.3646 5.46243 13.4088C4.31314 12.6037 3.40193 11.5537 2.7288 10.2589C2.05562 8.96409 1.71903 7.5629 1.71903 6.05531C1.71903 4.46531 2.09816 2.98472 2.85642 1.61353C4.96622 4.33436 7.52268 6.50893 10.5258 8.13725C13.529 9.76559 16.7508 10.6699 20.1913 10.8502C20.0445 10.2076 19.971 9.53691 19.9708 8.83826C19.9708 6.39886 20.7922 4.31596 22.4351 2.58958C24.078 0.863192 26.0601 0 28.3814 0C30.8117 0 32.8587 0.929961 34.5225 2.78988C36.4235 2.39417 38.2035 1.67844 39.8624 0.642669C39.2233 2.75643 37.9918 4.38706 36.1678 5.53454C37.8442 5.3252 39.4549 4.8623 40.9999 4.14585H41Z" fill="#009FA0"/>
</svg>
