<svg width="34" height="35" viewBox="0 0 34 35" fill="none" xmlns="http://www.w3.org/2000/svg">
<path d="M24.786 20.9748C24.3599 20.7528 22.2849 19.7105 21.8971 19.5617C21.5092 19.4195 21.2277 19.3452 20.9451 19.7837C20.6688 20.2114 19.8549 21.1903 19.6063 21.4758C19.3577 21.7612 19.1133 21.7831 18.6936 21.5895C18.2676 21.3675 16.9065 20.9114 15.2904 19.4195C14.0282 18.2634 13.1877 16.8394 12.9381 16.4008C12.6894 15.9677 12.9104 15.7227 13.1208 15.5061C13.3142 15.307 13.5469 15.0052 13.7626 14.7427C13.9676 14.4802 14.0335 14.3041 14.1833 14.0197C14.3214 13.7123 14.2502 13.4728 14.1451 13.2562C14.0399 13.0397 13.1931 10.8927 12.8392 10.0373C12.5014 9.18859 12.1476 9.29688 11.8872 9.29688C11.6439 9.27391 11.3613 9.27391 11.0798 9.27391C10.7982 9.27391 10.3381 9.38219 9.95031 9.79781C9.5625 10.2364 8.46706 11.2842 8.46706 13.4039C8.46706 15.5291 9.98325 17.5853 10.1936 17.8927C10.4093 18.177 13.1761 22.552 17.4207 24.4322C18.4333 24.8708 19.2196 25.1333 19.8337 25.3498C20.8463 25.6802 21.7706 25.6342 22.5006 25.5259C23.3081 25.3892 25.0017 24.4716 25.3566 23.4467C25.7167 22.4153 25.7167 21.5611 25.6116 21.3675C25.5064 21.1684 25.2301 21.0602 24.8041 20.8666L24.786 20.9748ZM17.0882 31.7188H17.0659C14.5531 31.7188 12.0689 31.0177 9.89931 29.7073L9.39038 29.3945L4.07788 30.8186L5.50588 25.4975L5.16269 24.9506C3.75962 22.6541 3.01527 19.9964 3.01538 17.2834C3.01538 9.34281 9.32981 2.86562 17.0988 2.86562C20.8622 2.86562 24.3929 4.375 27.0491 7.10938C28.3595 8.44221 29.3989 10.0303 30.1067 11.7811C30.8145 13.5318 31.1765 15.4101 31.1716 17.3064C31.161 25.2416 24.8519 31.7188 17.0935 31.7188H17.0882ZM29.0689 5.03016C25.8368 1.81672 21.5868 0 17.0659 0C7.74138 0 0.14875 7.78203 0.143438 17.3458C0.143438 20.3995 0.918 23.3789 2.40125 26.0159L0 35L8.976 32.5905C11.4626 33.9705 14.242 34.6964 17.0669 34.7036H17.0723C26.4021 34.7036 33.9947 26.9216 34 17.3512C34 12.7203 32.2458 8.36172 29.0477 5.08594L29.0689 5.03016Z" fill="#009FA0"/>
</svg>
